<?xml version="1.0" encoding="iso-8859-1"?>
<!-- Generator: Adobe Illustrator 19.0.0, SVG Export Plug-In . SVG Version: 6.00 Build 0)  -->
<svg version="1.1" id="Layer_1" xmlns="http://www.w3.org/2000/svg" xmlns:xlink="http://www.w3.org/1999/xlink" x="0px" y="0px"
	 viewBox="0 0 512.003 512.003" style="enable-background:new 0 0 512.003 512.003;" xml:space="preserve">
<g>
	<g>
		<path d="M406.556,131.144c32.839-3.654,58.462-31.568,58.462-65.364C465.018,29.508,435.509,0,399.238,0h-7.604v58.177h-58.178
			v7.604c0,33.579,25.298,61.345,57.833,65.284c-3.36,35.759-31.779,64.341-67.472,67.93v-22.789
			c0-17.256-12.587-31.62-29.062-34.412v-17.99c10.088-3.226,17.416-12.69,17.416-23.835c0-13.796-11.224-25.021-25.02-25.021
			s-25.021,11.224-25.021,25.021c0,11.145,7.328,20.609,17.417,23.835v17.49h-47.095v-17.49
			c10.089-3.226,17.416-12.69,17.416-23.835c0-13.796-11.224-25.021-25.02-25.021c-13.795,0-25.019,11.224-25.019,25.021
			c0,11.145,7.327,20.608,17.415,23.835v17.99c-16.474,2.792-29.062,17.156-29.062,34.412v22.789
			c-35.693-3.589-64.113-32.17-67.472-67.93c32.535-3.94,57.833-31.704,57.833-65.284v-7.604h-58.178V0h-7.604
			c-36.271,0-65.78,29.508-65.78,65.78c0,33.796,25.623,61.71,58.46,65.364c3.477,44.114,38.681,79.44,82.739,83.118v31.096
			c-39.745,1.806-76.645,16.934-78.292,17.617l5.824,14.047c0.376-0.155,35.641-14.583,72.467-16.438v30.557
			c-67.475,2.783-95.349,42.007-96.543,43.736l12.495,8.669c0.066-0.094,6.76-9.472,21.318-18.702
			c21.195-13.438,44.689-17.622,62.73-18.476v30.705c-50.367,3.894-90.159,46.123-90.159,97.474h15.207
			c0-42.958,32.983-78.342,74.952-82.196v59.665c0,7.307,2.26,14.092,6.112,19.705h-3.368c-22.133,0-40.139,18.006-40.139,40.139
			c0,22.134,18.006,40.141,40.139,40.141c13.371,0,25.238-6.573,32.536-16.659c7.299,10.085,19.165,16.659,32.536,16.659
			c13.371,0,25.237-6.573,32.535-16.657c7.298,10.083,19.164,16.657,32.535,16.657c22.133,0,40.14-18.007,40.14-40.141
			c0-22.133-18.007-40.139-40.14-40.139h-3.367c3.852-5.612,6.112-12.398,6.112-19.705v-59.665
			c41.97,3.852,74.956,39.237,74.956,82.196h15.207c0-51.351-39.794-93.582-90.163-97.474V306.37
			c29.697,1.376,50.342,10.62,62.733,18.476c14.558,9.23,21.253,18.607,21.299,18.674l12.514-8.641
			c-1.194-1.729-29.069-40.954-96.545-43.737v-30.557c36.828,1.855,72.094,16.283,72.467,16.438l5.827-14.046
			c-1.646-0.683-38.548-15.812-78.295-17.617v-31.096C367.876,210.585,403.08,175.258,406.556,131.144z M349.234,73.384h57.607
			V15.778c24.293,3.678,42.97,24.699,42.97,50.002c0,27.887-22.687,50.574-50.574,50.574
			C373.936,116.354,352.912,97.677,349.234,73.384z M62.192,65.78c0-25.303,18.677-46.324,42.969-50.002v57.606h57.608
			c-3.678,24.293-24.701,42.97-50.004,42.97C84.879,116.354,62.192,93.667,62.192,65.78z M277.339,99.969
			c0-5.411,4.403-9.814,9.814-9.814s9.813,4.403,9.813,9.814s-4.402,9.813-9.813,9.813S277.339,105.38,277.339,99.969z
			 M215.039,99.969c0-5.411,4.401-9.814,9.812-9.814s9.813,4.403,9.813,9.814s-4.402,9.813-9.813,9.813
			C219.441,109.782,215.039,105.38,215.039,99.969z M203.392,176.205c0-10.866,8.839-19.705,19.704-19.705h65.808
			c10.866,0,19.706,8.839,19.706,19.705v23.173H203.392V176.205z M203.392,214.585h105.218v42.879H203.392V214.585z
			 M203.392,330.757h17.948V315.55h-17.948v-42.878h105.218v42.878h-66.994v15.207h66.994v42.879H203.392V330.757z M203.392,388.843
			h105.218v23.173c0,10.866-8.84,19.705-19.706,19.705h-65.808c-10.865,0-19.704-8.839-19.704-19.705V388.843z M321.072,446.929
			c13.748,0,24.933,11.184,24.933,24.932c0,13.749-11.184,24.934-24.933,24.934c-13.747,0-24.932-11.184-24.932-24.934h-15.207
			c0,13.749-11.184,24.934-24.932,24.934c-13.743,0-24.929-11.181-24.933-24.926l-15.207,0.001
			c-0.004,13.743-11.188,24.925-24.933,24.925c-13.747,0-24.932-11.184-24.932-24.934c0-13.747,11.184-24.932,24.932-24.932h32.167
			h65.807H321.072z"/>
	</g>
</g>
<g>
</g>
<g>
</g>
<g>
</g>
<g>
</g>
<g>
</g>
<g>
</g>
<g>
</g>
<g>
</g>
<g>
</g>
<g>
</g>
<g>
</g>
<g>
</g>
<g>
</g>
<g>
</g>
<g>
</g>
</svg>
